<?xml version="1.0" encoding="UTF-8" standalone="no"?><svg xmlns="http://www.w3.org/2000/svg" xmlns:xlink="http://www.w3.org/1999/xlink" contentScriptType="application/ecmascript" contentStyleType="text/css" height="280px" preserveAspectRatio="none" style="width:537px;height:280px;background:#FFFFFF;" version="1.1" viewBox="0 0 537 280" width="537px" zoomAndPan="magnify"><defs/><g><text fill="#000000" font-family="Verdana" font-size="18" lengthAdjust="spacing" textLength="226" x="157" y="28.708">RDCU pour démarrerJeu</text><line style="stroke:#A80036;stroke-width:1.0;stroke-dasharray:5.0,5.0;" x1="142.5" x2="142.5" y1="87.5469" y2="273.4766"/><line style="stroke:#A80036;stroke-width:1.0;stroke-dasharray:5.0,5.0;" x1="301" x2="301" y1="205.6445" y2="273.4766"/><line style="stroke:#A80036;stroke-width:1.0;stroke-dasharray:5.0,5.0;" x1="424" x2="424" y1="87.5469" y2="273.4766"/><rect fill="#FEFECE" height="30.2969" style="stroke:#A80036;stroke-width:1.5;" width="87" x="99.5" y="56.25"/><text fill="#000000" font-family="Verdana" font-size="14" lengthAdjust="spacing" textLength="73" x="106.5" y="76.2451">:JeuDeDes</text><rect fill="#FEFECE" height="46.5938" style="stroke:#A80036;stroke-width:1.5;" width="158" x="345" y="39.9531"/><text fill="#000000" font-family="Verdana" font-size="14" lengthAdjust="spacing" textLength="56" x="396" y="59.9482">joueurs:</text><text fill="#000000" font-family="Verdana" font-size="14" lengthAdjust="spacing" textLength="144" x="352" y="76.2451">Map&lt;String,Joueur&gt;</text><polygon fill="#A80036" points="131,132.8125,141,136.8125,131,140.8125" style="stroke:#A80036;stroke-width:1.0;"/><line style="stroke:#A80036;stroke-width:1.0;" x1="0" x2="137" y1="136.8125" y2="136.8125"/><text fill="#000000" font-family="Verdana" font-size="13" lengthAdjust="spacing" textLength="119" x="7" y="131.7466">demarrerJeu(nom)</text><path d="M148,102.5469 L148,157.5469 L274,157.5469 L274,112.5469 L264,102.5469 L148,102.5469 " fill="#FBFB77" style="stroke:#A80036;stroke-width:1.0;"/><path d="M264,102.5469 L264,112.5469 L274,112.5469 L264,102.5469 " fill="#FBFB77" style="stroke:#A80036;stroke-width:1.0;"/><text fill="#000000" font-family="Verdana" font-size="13" lengthAdjust="spacing" textLength="105" x="154" y="119.6138">selon Contrôleur</text><text fill="#000000" font-family="Verdana" font-size="13" lengthAdjust="spacing" textLength="92" x="154" y="134.7466">(JeuDeDes est</text><text fill="#000000" font-family="Verdana" font-size="13" lengthAdjust="spacing" textLength="86" x="154" y="149.8794">l'objet racine)</text><polygon fill="#A80036" points="256,180.0781,266,184.0781,256,188.0781" style="stroke:#A80036;stroke-width:1.0;"/><line style="stroke:#A80036;stroke-width:1.0;stroke-dasharray:2.0,2.0;" x1="143" x2="262" y1="184.0781" y2="184.0781"/><text fill="#000000" font-family="Verdana" font-size="13" lengthAdjust="spacing" textLength="101" x="150" y="179.0122">j = create(nom)</text><rect fill="#FEFECE" height="30.2969" style="stroke:#A80036;stroke-width:1.5;" width="67" x="268" y="174.9961"/><text fill="#000000" font-family="Verdana" font-size="14" lengthAdjust="spacing" textLength="53" x="275" y="194.9912">j:Joueur</text><path d="M339.5,167.9453 L339.5,222.9453 L455.5,222.9453 L455.5,177.9453 L445.5,167.9453 L339.5,167.9453 " fill="#FBFB77" style="stroke:#A80036;stroke-width:1.0;"/><path d="M445.5,167.9453 L445.5,177.9453 L455.5,177.9453 L445.5,167.9453 " fill="#FBFB77" style="stroke:#A80036;stroke-width:1.0;"/><text fill="#000000" font-family="Verdana" font-size="13" lengthAdjust="spacing" textLength="94" x="345.5" y="185.0122">selon Créateur</text><text fill="#000000" font-family="Verdana" font-size="13" lengthAdjust="spacing" textLength="68" x="345.5" y="200.145">(JeuDeDes</text><text fill="#000000" font-family="Verdana" font-size="13" font-style="italic" lengthAdjust="spacing" textLength="45" x="345.5" y="215.2778">agrège</text><text fill="#000000" font-family="Verdana" font-size="13" lengthAdjust="spacing" textLength="46" x="394.5" y="215.2778">Joueur)</text><polygon fill="#A80036" points="412,248.4766,422,252.4766,412,256.4766" style="stroke:#A80036;stroke-width:1.0;"/><line style="stroke:#A80036;stroke-width:1.0;" x1="143" x2="418" y1="252.4766" y2="252.4766"/><text fill="#000000" font-family="Verdana" font-size="13" lengthAdjust="spacing" textLength="37" x="150" y="247.4106">add(j)</text><path d="M429,233.3438 L429,258.3438 L530,258.3438 L530,243.3438 L520,233.3438 L429,233.3438 " fill="#FBFB77" style="stroke:#A80036;stroke-width:1.0;"/><path d="M520,233.3438 L520,243.3438 L530,243.3438 L520,233.3438 " fill="#FBFB77" style="stroke:#A80036;stroke-width:1.0;"/><text fill="#000000" font-family="Verdana" font-size="13" lengthAdjust="spacing" textLength="80" x="435" y="250.4106">selon Expert</text><!--MD5=[cdecb8dce92859cf98857c903937f57d]
@startuml
skinparam style strictuml
skinparam defaultfontname Verdana
title RDCU pour démarrerJeu
participant ":JeuDeDes" as c
->c : demarrerJeu(nom)
note right : selon Contrôleur\n(JeuDeDes est\nl'objet racine)
participant "j:Joueur" as j
create j
participant "joueurs:\nMap<String,Joueur>" as jm
c- ->j : j = create(nom)
note right : selon Créateur\n(JeuDeDes\n//agrège// Joueur)
c -> jm : add(j)
note right : selon Expert
@enduml

PlantUML version 1.2021.6beta6(Unknown compile time)
(GPL source distribution)
Java Runtime: Java(TM) SE Runtime Environment
JVM: Java HotSpot(TM) 64-Bit Server VM
Default Encoding: UTF-8
Language: en
Country: US
--></g></svg>